<?xml version="1.0" standalone="no"?>
<!DOCTYPE svg PUBLIC "-//W3C//DTD SVG 1.1//EN"
 "http://www.w3.org/Graphics/SVG/1.1/DTD/svg11.dtd">

<svg version="1.1" xmlns="http://www.w3.org/2000/svg"
  xmlns:xlink="http://www.w3.org/1999/xlink">
<!-- automatically generated by aafigure -->
<text x="107.52" y="9.52" font-family="sans-serif" font-size="11.2" fill="#000000" >
  addrPhysicalExtract
</text>
<text x="376.32" y="9.52" font-family="sans-serif" font-size="11.2" fill="#000000" >
  addrLogicalConstruct
</text>
<text x="107.52" y="54.32" font-family="sans-serif" font-size="11.2" fill="#000000" >
  addrPhysicalConstruct
</text>
<text x="376.32" y="54.32" font-family="sans-serif" font-size="11.2" fill="#000000" >
  addrLogicalExtract
</text>
<text x="0.0" y="99.12" font-family="sans-serif" font-size="11.2" fill="#000000" >
  For Hardware
</text>
<text x="268.8" y="99.12" font-family="sans-serif" font-size="11.2" fill="#000000" >
  For Defining
</text>
<text x="537.6" y="99.12" font-family="sans-serif" font-size="11.2" fill="#000000" >
  For plotting
</text>
<text x="268.8" y="110.32" font-family="sans-serif" font-size="11.2" fill="#000000" >
  Neuron addresses
</text>
<text x="537.6" y="110.32" font-family="sans-serif" font-size="11.2" fill="#000000" >
  or analysis
</text>
<text x="268.8" y="121.52" font-family="sans-serif" font-size="11.2" fill="#000000" >
  and Synapse Addr-
</text>
<text x="537.6" y="121.52" font-family="sans-serif" font-size="11.2" fill="#000000" >
  tools such as
</text>
<text x="268.8" y="132.72" font-family="sans-serif" font-size="11.2" fill="#000000" >
  esses by the user
</text>
<text x="537.6" y="132.72" font-family="sans-serif" font-size="11.2" fill="#000000" >
  Neurotools
</text>
<line x1="3.36" y1="5.6" x2="84.0" y2="5.6" stroke="#000000" stroke-width="2.0" />
<line x1="84.0" y1="5.6" x2="84.0" y2="16.8" stroke="#000000" stroke-width="2.0" />
<line x1="272.16" y1="5.6" x2="352.8" y2="5.6" stroke="#000000" stroke-width="2.0" />
<line x1="352.8" y1="5.6" x2="352.8" y2="16.8" stroke="#000000" stroke-width="2.0" />
<line x1="540.96" y1="5.6" x2="621.6" y2="5.6" stroke="#000000" stroke-width="2.0" />
<line x1="621.6" y1="5.6" x2="621.6" y2="16.8" stroke="#000000" stroke-width="2.0" />
<line x1="3.36" y1="5.6" x2="3.36" y2="50.4" stroke="#000000" stroke-width="2.0" />
<line x1="84.0" y1="16.8" x2="84.0" y2="28.0" stroke="#000000" stroke-width="2.0" />
<g>
    <line x1="262.08" y1="16.8" x2="253.68" y2="19.6" stroke="#000000" stroke-width="2.0" />
    <line x1="262.08" y1="16.8" x2="253.68" y2="14.0" stroke="#000000" stroke-width="2.0" />
    <line x1="94.08" y1="16.8" x2="262.08" y2="16.8" stroke="#000000" stroke-width="2.0" />
</g>
<line x1="272.16" y1="5.6" x2="272.16" y2="50.4" stroke="#000000" stroke-width="2.0" />
<line x1="352.8" y1="16.8" x2="352.8" y2="28.0" stroke="#000000" stroke-width="2.0" />
<g>
    <line x1="530.88" y1="16.8" x2="522.48" y2="19.6" stroke="#000000" stroke-width="2.0" />
    <line x1="530.88" y1="16.8" x2="522.48" y2="14.0" stroke="#000000" stroke-width="2.0" />
    <line x1="362.88" y1="16.8" x2="530.88" y2="16.8" stroke="#000000" stroke-width="2.0" />
</g>
<line x1="540.96" y1="5.6" x2="540.96" y2="50.4" stroke="#000000" stroke-width="2.0" />
<line x1="621.6" y1="16.8" x2="621.6" y2="28.0" stroke="#000000" stroke-width="2.0" />
<line x1="84.0" y1="28.0" x2="84.0" y2="39.2" stroke="#000000" stroke-width="2.0" />
<line x1="352.8" y1="28.0" x2="352.8" y2="39.2" stroke="#000000" stroke-width="2.0" />
<line x1="621.6" y1="28.0" x2="621.6" y2="39.2" stroke="#000000" stroke-width="2.0" />
<line x1="84.0" y1="39.2" x2="84.0" y2="50.4" stroke="#000000" stroke-width="2.0" />
<g>
    <line x1="94.08" y1="39.2" x2="102.48" y2="36.4" stroke="#000000" stroke-width="2.0" />
    <line x1="94.08" y1="39.2" x2="102.48" y2="42.0" stroke="#000000" stroke-width="2.0" />
    <line x1="94.08" y1="39.2" x2="262.08" y2="39.2" stroke="#000000" stroke-width="2.0" />
</g>
<line x1="352.8" y1="39.2" x2="352.8" y2="50.4" stroke="#000000" stroke-width="2.0" />
<g>
    <line x1="362.88" y1="39.2" x2="371.28" y2="36.4" stroke="#000000" stroke-width="2.0" />
    <line x1="362.88" y1="39.2" x2="371.28" y2="42.0" stroke="#000000" stroke-width="2.0" />
    <line x1="362.88" y1="39.2" x2="530.88" y2="39.2" stroke="#000000" stroke-width="2.0" />
</g>
<line x1="621.6" y1="39.2" x2="621.6" y2="50.4" stroke="#000000" stroke-width="2.0" />
<line x1="3.36" y1="50.4" x2="84.0" y2="50.4" stroke="#000000" stroke-width="2.0" />
<line x1="272.16" y1="50.4" x2="352.8" y2="50.4" stroke="#000000" stroke-width="2.0" />
<line x1="540.96" y1="50.4" x2="621.6" y2="50.4" stroke="#000000" stroke-width="2.0" />
<line x1="6.72" y1="72.8" x2="80.64" y2="72.8" stroke="#000000" stroke-width="2.0" />
<line x1="275.52" y1="72.8" x2="349.44" y2="72.8" stroke="#000000" stroke-width="2.0" />
<line x1="537.6" y1="72.8" x2="618.24" y2="72.8" stroke="#000000" stroke-width="2.0" />
<path d="M6.72,72.8 C0.688615416009,72.8 0.0,89.6 0.0,89.6" fill="none" stroke="#000000" stroke-width="2.0" />
<path d="M80.64,72.8 C86.671384584,72.8 87.36,89.6 87.36,89.6" fill="none" stroke="#000000" stroke-width="2.0" />
<path d="M275.52,72.8 C269.488615416,72.8 268.8,89.6 268.8,89.6" fill="none" stroke="#000000" stroke-width="2.0" />
<path d="M349.44,72.8 C355.471384584,72.8 356.16,89.6 356.16,89.6" fill="none" stroke="#000000" stroke-width="2.0" />
<path d="M537.6,72.8 C531.568615416,72.8 530.88,89.6 530.88,89.6" fill="none" stroke="#000000" stroke-width="2.0" />
<path d="M618.24,72.8 C624.271384584,72.8 624.96,89.6 624.96,89.6" fill="none" stroke="#000000" stroke-width="2.0" />
<text x="13.44" y="20.72" font-family="sans-serif" font-size="11.2" fill="#000000" >
  Physical
</text>
<text x="282.24" y="20.72" font-family="sans-serif" font-size="11.2" fill="#000000" >
  Human
</text>
<text x="551.04" y="20.72" font-family="sans-serif" font-size="11.2" fill="#000000" >
  Logical
</text>
<text x="13.44" y="31.92" font-family="sans-serif" font-size="11.2" fill="#000000" >
  Addresses
</text>
<text x="282.24" y="31.92" font-family="sans-serif" font-size="11.2" fill="#000000" >
  Addresses
</text>
<text x="551.04" y="31.92" font-family="sans-serif" font-size="11.2" fill="#000000" >
  Addresses
</text>
</svg>
