<?xml version="1.0" standalone="no"?>
<!DOCTYPE svg PUBLIC "-//W3C//DTD SVG 1.1//EN"
 "http://www.w3.org/Graphics/SVG/1.1/DTD/svg11.dtd">

<svg width="100%" height="100%" version="1.1" xmlns="http://www.w3.org/2000/svg"
  xmlns:xlink="http://www.w3.org/1999/xlink">
<!-- automatically generated by aafigure -->
<text x="1020px" y="164px" font-family="sans-serif" font-size="21px" style="fill:#000000" >
  For plotting
</text>
<text x="0px" y="185px" font-family="sans-serif" font-size="21px" style="fill:#000000" >
  - Hardware
</text>
<text x="516px" y="185px" font-family="sans-serif" font-size="21px" style="fill:#000000" >
  For Defining
</text>
<text x="1020px" y="185px" font-family="sans-serif" font-size="21px" style="fill:#000000" >
  or analysis
</text>
<text x="504px" y="206px" font-family="sans-serif" font-size="21px" style="fill:#000000" >
  Neuron addresses
</text>
<text x="1020px" y="206px" font-family="sans-serif" font-size="21px" style="fill:#000000" >
  tools such as
</text>
<text x="504px" y="227px" font-family="sans-serif" font-size="21px" style="fill:#000000" >
  and Synapse Addr-
</text>
<text x="1020px" y="227px" font-family="sans-serif" font-size="21px" style="fill:#000000" >
  Neurotools
</text>
<text x="504px" y="248px" font-family="sans-serif" font-size="21px" style="fill:#000000" >
  esses by the user
</text>
<line x1="6px" y1="10px" x2="157px" y2="10px" style="stroke:#000000; stroke-width:2px;" />
<line x1="157px" y1="10px" x2="157px" y2="31px" style="stroke:#000000; stroke-width:2px;" />
<line x1="510px" y1="10px" x2="661px" y2="10px" style="stroke:#000000; stroke-width:2px;" />
<line x1="661px" y1="10px" x2="661px" y2="31px" style="stroke:#000000; stroke-width:2px;" />
<line x1="1014px" y1="10px" x2="1165px" y2="10px" style="stroke:#000000; stroke-width:2px;" />
<line x1="1165px" y1="10px" x2="1165px" y2="31px" style="stroke:#000000; stroke-width:2px;" />
<line x1="6px" y1="10px" x2="6px" y2="94px" style="stroke:#000000; stroke-width:2px;" />
<line x1="157px" y1="31px" x2="157px" y2="52px" style="stroke:#000000; stroke-width:2px;" />
<g>
    <line x1="491px" y1="31px" x2="475px" y2="36px" style="stroke:#000000; stroke-width:2px;" />
    <line x1="491px" y1="31px" x2="475px" y2="26px" style="stroke:#000000; stroke-width:2px;" />
    <line x1="176px" y1="31px" x2="491px" y2="31px" style="stroke:#000000; stroke-width:2px;" />
</g>
<line x1="510px" y1="10px" x2="510px" y2="94px" style="stroke:#000000; stroke-width:2px;" />
<line x1="661px" y1="31px" x2="661px" y2="52px" style="stroke:#000000; stroke-width:2px;" />
<g>
    <line x1="995px" y1="31px" x2="979px" y2="36px" style="stroke:#000000; stroke-width:2px;" />
    <line x1="995px" y1="31px" x2="979px" y2="26px" style="stroke:#000000; stroke-width:2px;" />
    <line x1="680px" y1="31px" x2="995px" y2="31px" style="stroke:#000000; stroke-width:2px;" />
</g>
<line x1="1014px" y1="10px" x2="1014px" y2="94px" style="stroke:#000000; stroke-width:2px;" />
<line x1="1165px" y1="31px" x2="1165px" y2="52px" style="stroke:#000000; stroke-width:2px;" />
<line x1="157px" y1="52px" x2="157px" y2="73px" style="stroke:#000000; stroke-width:2px;" />
<line x1="661px" y1="52px" x2="661px" y2="73px" style="stroke:#000000; stroke-width:2px;" />
<line x1="1165px" y1="52px" x2="1165px" y2="73px" style="stroke:#000000; stroke-width:2px;" />
<line x1="157px" y1="73px" x2="157px" y2="94px" style="stroke:#000000; stroke-width:2px;" />
<g>
    <line x1="176px" y1="73px" x2="192px" y2="68px" style="stroke:#000000; stroke-width:2px;" />
    <line x1="176px" y1="73px" x2="192px" y2="78px" style="stroke:#000000; stroke-width:2px;" />
    <line x1="176px" y1="73px" x2="491px" y2="73px" style="stroke:#000000; stroke-width:2px;" />
</g>
<line x1="661px" y1="73px" x2="661px" y2="94px" style="stroke:#000000; stroke-width:2px;" />
<g>
    <line x1="680px" y1="73px" x2="696px" y2="68px" style="stroke:#000000; stroke-width:2px;" />
    <line x1="680px" y1="73px" x2="696px" y2="78px" style="stroke:#000000; stroke-width:2px;" />
    <line x1="680px" y1="73px" x2="995px" y2="73px" style="stroke:#000000; stroke-width:2px;" />
</g>
<line x1="1165px" y1="73px" x2="1165px" y2="94px" style="stroke:#000000; stroke-width:2px;" />
<line x1="6px" y1="94px" x2="157px" y2="94px" style="stroke:#000000; stroke-width:2px;" />
<line x1="510px" y1="94px" x2="661px" y2="94px" style="stroke:#000000; stroke-width:2px;" />
<line x1="1014px" y1="94px" x2="1165px" y2="94px" style="stroke:#000000; stroke-width:2px;" />
<line x1="12px" y1="136px" x2="151px" y2="136px" style="stroke:#000000; stroke-width:2px;" />
<line x1="529px" y1="136px" x2="667px" y2="136px" style="stroke:#000000; stroke-width:2px;" />
<line x1="1008px" y1="136px" x2="1197px" y2="136px" style="stroke:#000000; stroke-width:2px;" />
<line x1="12px" y1="136px" x2="0px" y2="168px" style="stroke:#000000; stroke-width:2px;" />
<line x1="151px" y1="136px" x2="163px" y2="168px" style="stroke:#000000; stroke-width:2px;" />
<line x1="529px" y1="136px" x2="516px" y2="168px" style="stroke:#000000; stroke-width:2px;" />
<line x1="667px" y1="136px" x2="680px" y2="168px" style="stroke:#000000; stroke-width:2px;" />
<line x1="1008px" y1="136px" x2="995px" y2="168px" style="stroke:#000000; stroke-width:2px;" />
<line x1="1197px" y1="136px" x2="1209px" y2="168px" style="stroke:#000000; stroke-width:2px;" />
<text x="214px" y="17px" font-family="sans-serif" font-size="21px" style="fill:#000000" >
  addrPhysicalExtract
</text>
<text x="718px" y="17px" font-family="sans-serif" font-size="21px" style="fill:#000000" >
  addrLogicalExtract
</text>
<text x="25px" y="38px" font-family="sans-serif" font-size="21px" style="fill:#000000" >
  Physical
</text>
<text x="529px" y="38px" font-family="sans-serif" font-size="21px" style="fill:#000000" >
  Human
</text>
<text x="1033px" y="38px" font-family="sans-serif" font-size="21px" style="fill:#000000" >
  Logical
</text>
<text x="25px" y="59px" font-family="sans-serif" font-size="21px" style="fill:#000000" >
  Addresses
</text>
<text x="529px" y="59px" font-family="sans-serif" font-size="21px" style="fill:#000000" >
  Addresses
</text>
<text x="1033px" y="59px" font-family="sans-serif" font-size="21px" style="fill:#000000" >
  Addresses
</text>
<text x="214px" y="101px" font-family="sans-serif" font-size="21px" style="fill:#000000" >
  addrPhysicalConstruct
</text>
<text x="718px" y="101px" font-family="sans-serif" font-size="21px" style="fill:#000000" >
  addrLogicalConstruct
</text>
</svg>
