<?xml version="1.0" standalone="no"?>
<!DOCTYPE svg PUBLIC "-//W3C//DTD SVG 1.1//EN"
 "http://www.w3.org/Graphics/SVG/1.1/DTD/svg11.dtd">

<svg width="100%" height="100%" version="1.1" xmlns="http://www.w3.org/2000/svg"
  xmlns:xlink="http://www.w3.org/1999/xlink">
<!-- automatically generated by aafigure -->
<line x1="6px" y1="10px" x2="157px" y2="10px" style="stroke:#000000; stroke-width:2px;" />
<line x1="157px" y1="10px" x2="157px" y2="31px" style="stroke:#000000; stroke-width:2px;" />
<line x1="522px" y1="10px" x2="674px" y2="10px" style="stroke:#000000; stroke-width:2px;" />
<line x1="674px" y1="10px" x2="674px" y2="31px" style="stroke:#000000; stroke-width:2px;" />
<line x1="1026px" y1="10px" x2="1178px" y2="10px" style="stroke:#000000; stroke-width:2px;" />
<line x1="1178px" y1="10px" x2="1178px" y2="31px" style="stroke:#000000; stroke-width:2px;" />
<line x1="6px" y1="10px" x2="6px" y2="42px" style="stroke:#000000; stroke-width:2px;" />
<g>
    <line x1="504px" y1="31px" x2="488px" y2="36px" style="stroke:#000000; stroke-width:2px;" />
    <line x1="504px" y1="31px" x2="488px" y2="26px" style="stroke:#000000; stroke-width:2px;" />
    <line x1="189px" y1="31px" x2="504px" y2="31px" style="stroke:#000000; stroke-width:2px;" />
</g>
<line x1="522px" y1="10px" x2="522px" y2="42px" style="stroke:#000000; stroke-width:2px;" />
<g>
    <line x1="1008px" y1="31px" x2="992px" y2="36px" style="stroke:#000000; stroke-width:2px;" />
    <line x1="1008px" y1="31px" x2="992px" y2="26px" style="stroke:#000000; stroke-width:2px;" />
    <line x1="693px" y1="31px" x2="1008px" y2="31px" style="stroke:#000000; stroke-width:2px;" />
</g>
<line x1="1026px" y1="10px" x2="1026px" y2="42px" style="stroke:#000000; stroke-width:2px;" />
<line x1="56px" y1="42px" x2="56px" y2="84px" style="stroke:#000000; stroke-width:2px;" />
<line x1="207px" y1="52px" x2="226px" y2="52px" style="stroke:#000000; stroke-width:2px;" />
<line x1="573px" y1="42px" x2="573px" y2="63px" style="stroke:#000000; stroke-width:2px;" />
<line x1="1077px" y1="42px" x2="1077px" y2="63px" style="stroke:#000000; stroke-width:2px;" />
<g>
    <line x1="390px" y1="73px" x2="406px" y2="68px" style="stroke:#000000; stroke-width:2px;" />
    <line x1="390px" y1="73px" x2="406px" y2="78px" style="stroke:#000000; stroke-width:2px;" />
    <line x1="390px" y1="73px" x2="705px" y2="73px" style="stroke:#000000; stroke-width:2px;" />
</g>
<line x1="724px" y1="52px" x2="724px" y2="84px" style="stroke:#000000; stroke-width:2px;" />
<g>
    <line x1="894px" y1="73px" x2="910px" y2="68px" style="stroke:#000000; stroke-width:2px;" />
    <line x1="894px" y1="73px" x2="910px" y2="78px" style="stroke:#000000; stroke-width:2px;" />
    <line x1="894px" y1="73px" x2="1209px" y2="73px" style="stroke:#000000; stroke-width:2px;" />
</g>
<line x1="1228px" y1="52px" x2="1228px" y2="84px" style="stroke:#000000; stroke-width:2px;" />
<line x1="6px" y1="94px" x2="157px" y2="94px" style="stroke:#000000; stroke-width:2px;" />
<line x1="522px" y1="94px" x2="674px" y2="94px" style="stroke:#000000; stroke-width:2px;" />
<line x1="1026px" y1="94px" x2="1178px" y2="94px" style="stroke:#000000; stroke-width:2px;" />
<line x1="12px" y1="136px" x2="151px" y2="136px" style="stroke:#000000; stroke-width:2px;" />
<line x1="529px" y1="136px" x2="667px" y2="136px" style="stroke:#000000; stroke-width:2px;" />
<line x1="1008px" y1="136px" x2="1184px" y2="136px" style="stroke:#000000; stroke-width:2px;" />
<line x1="63px" y1="136px" x2="50px" y2="168px" style="stroke:#000000; stroke-width:2px;" />
<line x1="579px" y1="136px" x2="567px" y2="178px" style="stroke:#000000; stroke-width:2px;" />
<line x1="1058px" y1="136px" x2="1045px" y2="168px" style="stroke:#000000; stroke-width:2px;" />
<g>
    <line x1="1184px" y1="147px" x2="1197px" y2="168px" style="stroke:#000000; stroke-width:2px;" />
    <line x1="1197px" y1="147px" x2="1197px" y2="147px" style="stroke:#000000; stroke-width:2px;" />
    <line x1="1184px" y1="154px" x2="1192px" y2="168px" style="stroke:#000000; stroke-width:2px;" />
    <line x1="1192px" y1="147px" x2="1197px" y2="154px" style="stroke:#000000; stroke-width:2px;" />
    <line x1="1184px" y1="161px" x2="1188px" y2="168px" style="stroke:#000000; stroke-width:2px;" />
    <line x1="1188px" y1="147px" x2="1197px" y2="161px" style="stroke:#000000; stroke-width:2px;" />
    <line x1="1184px" y1="147px" x2="1184px" y2="147px" style="stroke:#000000; stroke-width:2px;" />
    <line x1="1184px" y1="168px" x2="1197px" y2="147px" style="stroke:#000000; stroke-width:2px;" />
    <line x1="1184px" y1="154px" x2="1188px" y2="147px" style="stroke:#000000; stroke-width:2px;" />
    <line x1="1188px" y1="168px" x2="1197px" y2="154px" style="stroke:#000000; stroke-width:2px;" />
    <line x1="1184px" y1="161px" x2="1192px" y2="147px" style="stroke:#000000; stroke-width:2px;" />
    <line x1="1192px" y1="168px" x2="1197px" y2="161px" style="stroke:#000000; stroke-width:2px;" />
    <line x1="1184px" y1="168px" x2="1197px" y2="189px" style="stroke:#000000; stroke-width:2px;" />
    <line x1="1197px" y1="168px" x2="1197px" y2="168px" style="stroke:#000000; stroke-width:2px;" />
    <line x1="1184px" y1="175px" x2="1192px" y2="189px" style="stroke:#000000; stroke-width:2px;" />
    <line x1="1192px" y1="168px" x2="1197px" y2="175px" style="stroke:#000000; stroke-width:2px;" />
    <line x1="1184px" y1="182px" x2="1188px" y2="189px" style="stroke:#000000; stroke-width:2px;" />
    <line x1="1188px" y1="168px" x2="1197px" y2="182px" style="stroke:#000000; stroke-width:2px;" />
    <line x1="1184px" y1="168px" x2="1184px" y2="168px" style="stroke:#000000; stroke-width:2px;" />
    <line x1="1184px" y1="189px" x2="1197px" y2="168px" style="stroke:#000000; stroke-width:2px;" />
    <line x1="1184px" y1="175px" x2="1188px" y2="168px" style="stroke:#000000; stroke-width:2px;" />
    <line x1="1188px" y1="189px" x2="1197px" y2="175px" style="stroke:#000000; stroke-width:2px;" />
    <line x1="1184px" y1="182px" x2="1192px" y2="168px" style="stroke:#000000; stroke-width:2px;" />
    <line x1="1192px" y1="189px" x2="1197px" y2="182px" style="stroke:#000000; stroke-width:2px;" />
</g>
<line x1="63px" y1="178px" x2="75px" y2="178px" style="stroke:#000000; stroke-width:2px;" />
<line x1="567px" y1="178px" x2="579px" y2="178px" style="stroke:#000000; stroke-width:2px;" />
<line x1="1272px" y1="220px" x2="1285px" y2="220px" style="stroke:#000000; stroke-width:2px;" />
<text x="226px" y="17px" font-family="sans-serif" font-size="21px" style="fill:#000000" >
  addrPhysicalExtract
</text>
<text x="730px" y="17px" font-family="sans-serif" font-size="21px" style="fill:#000000" >
  addrLogicalExtract
</text>
<text x="25px" y="38px" font-family="sans-serif" font-size="21px" style="fill:#000000" >
  Physical
</text>
<text x="541px" y="38px" font-family="sans-serif" font-size="21px" style="fill:#000000" >
  Human
</text>
<text x="1045px" y="38px" font-family="sans-serif" font-size="21px" style="fill:#000000" >
  Logical
</text>
<text x="75px" y="59px" font-family="sans-serif" font-size="21px" style="fill:#000000" >
  Addresses
</text>
<text x="592px" y="59px" font-family="sans-serif" font-size="21px" style="fill:#000000" >
  Addresses
</text>
<text x="1096px" y="59px" font-family="sans-serif" font-size="21px" style="fill:#000000" >
  Addresses
</text>
<text x="226px" y="101px" font-family="sans-serif" font-size="21px" style="fill:#000000" >
  addrPhysicalConstruct
</text>
<text x="730px" y="101px" font-family="sans-serif" font-size="21px" style="fill:#000000" >
  addrLogicalConstruct
</text>
<text x="201px" y="164px" font-family="sans-serif" font-size="21px" style="fill:#000000" >
  \
</text>
<text x="718px" y="164px" font-family="sans-serif" font-size="21px" style="fill:#000000" >
  \
</text>
<text x="1071px" y="164px" font-family="sans-serif" font-size="21px" style="fill:#000000" >
  For plott
</text>
<text x="1197px" y="164px" font-family="sans-serif" font-size="21px" style="fill:#000000" >
  ng \
</text>
<text x="88px" y="185px" font-family="sans-serif" font-size="21px" style="fill:#000000" >
  Hardware
</text>
<text x="592px" y="185px" font-family="sans-serif" font-size="21px" style="fill:#000000" >
  For Defining
</text>
<text x="1071px" y="185px" font-family="sans-serif" font-size="21px" style="fill:#000000" >
  or analys
</text>
<text x="1197px" y="185px" font-family="sans-serif" font-size="21px" style="fill:#000000" >
  s
</text>
<text x="567px" y="206px" font-family="sans-serif" font-size="21px" style="fill:#000000" >
  Neuron addresses
</text>
<text x="1071px" y="206px" font-family="sans-serif" font-size="21px" style="fill:#000000" >
  tools such as
</text>
<text x="1071px" y="227px" font-family="sans-serif" font-size="21px" style="fill:#000000" >
  and Synapse Addr
</text>
<text x="1575px" y="227px" font-family="sans-serif" font-size="21px" style="fill:#000000" >
  Neurotools
</text>
<text x="1071px" y="248px" font-family="sans-serif" font-size="21px" style="fill:#000000" >
  esses by the user
</text>
</svg>
